<svg xmlns="http://www.w3.org/2000/svg" viewBox="0 0 1600 900" role="img" aria-label="Abstract research board illustration">
  <defs>
    <radialGradient id="screenGlow" cx="52%" cy="44%" r="58%">
      <stop offset="0" stop-color="#fff7e8" stop-opacity="0.94"/>
      <stop offset="0.62" stop-color="#f3e7d4" stop-opacity="0.82"/>
      <stop offset="1" stop-color="#f3e7d4" stop-opacity="0"/>
    </radialGradient>
    <linearGradient id="room" x1="0" x2="1" y1="0" y2="1">
      <stop offset="0" stop-color="#050505"/>
      <stop offset="0.58" stop-color="#17120f"/>
      <stop offset="1" stop-color="#080706"/>
    </linearGradient>
    <filter id="glow">
      <feGaussianBlur stdDeviation="18" result="blur"/>
      <feMerge>
        <feMergeNode in="blur"/>
        <feMergeNode in="SourceGraphic"/>
      </feMerge>
    </filter>
  </defs>

  <rect width="1600" height="900" fill="url(#room)"/>
  <path d="M95 118h1410v660H95z" fill="#0e0c0b" stroke="#2b2521" stroke-width="4"/>
  <path d="M180 155h1040v560H180z" fill="url(#screenGlow)" filter="url(#glow)"/>
  <path d="M180 155h1040v560H180z" fill="none" stroke="#fff8e8" stroke-width="2" opacity="0.42"/>

  <g opacity="0.26" stroke="#fff9ec" stroke-width="2" fill="none">
    <path d="M142 122h1316"/>
    <path d="M142 775h1316"/>
    <path d="M210 96v710"/>
    <path d="M1388 96v710"/>
    <path d="M300 186h820"/>
    <path d="M300 682h820"/>
  </g>

  <g fill="none" stroke="#11100f" stroke-linecap="round" opacity="0.92">
    <path d="M430 604c-16-102 27-203 109-264 82-60 193-70 286-23 86 43 141 129 144 225" stroke-width="8"/>
    <path d="M488 610c-21-78 9-162 75-209 66-47 158-49 226-5 57 37 91 101 91 169" stroke-width="6"/>
    <path d="M548 594c-18-52-2-111 41-145 43-35 105-39 153-10 40 24 66 68 68 115" stroke-width="5"/>
    <path d="M610 574c-8-30 3-64 27-84 27-22 68-23 96-2 18 14 30 35 32 58" stroke-width="5"/>
    <path d="M666 548c-2-12 3-25 13-32 13-10 32-9 44 2" stroke-width="5"/>
  </g>

  <g fill="none" stroke="#f42a2a" stroke-width="7" stroke-linecap="round" stroke-linejoin="round">
    <path d="M322 372l92 44 91-36 96 72 120-44"/>
    <path d="M414 416l-52 80"/>
    <path d="M601 452l-34 102"/>
    <path d="M721 408l58 88"/>
    <path d="M828 292c66 23 121 73 156 144"/>
    <path d="M894 332l58-28"/>
    <path d="M950 384l76-3"/>
  </g>

  <g fill="#f42a2a">
    <circle cx="322" cy="372" r="14"/>
    <circle cx="414" cy="416" r="17"/>
    <circle cx="505" cy="380" r="13"/>
    <circle cx="601" cy="452" r="19"/>
    <circle cx="721" cy="408" r="15"/>
    <circle cx="362" cy="496" r="15"/>
    <circle cx="567" cy="554" r="13"/>
    <circle cx="779" cy="496" r="15"/>
    <circle cx="894" cy="332" r="11"/>
    <circle cx="952" cy="304" r="11"/>
    <circle cx="1026" cy="381" r="12"/>
  </g>

  <g transform="rotate(-8 245 690)">
    <rect x="108" y="570" width="260" height="190" fill="#fffdfa" stroke="#11100f" stroke-width="5"/>
    <rect x="132" y="604" width="196" height="26" fill="#11100f" opacity="0.14"/>
    <rect x="132" y="650" width="174" height="22" fill="#11100f" opacity="0.12"/>
    <rect x="132" y="690" width="132" height="22" fill="#11100f" opacity="0.11"/>
    <path d="M146 724c38 24 72 5 108 28" fill="none" stroke="#f42a2a" stroke-width="9" stroke-linecap="round"/>
  </g>

  <g transform="rotate(7 1290 660)">
    <rect x="1165" y="500" width="290" height="230" fill="#fffdfa" stroke="#11100f" stroke-width="5"/>
    <rect x="1198" y="544" width="210" height="26" fill="#11100f" opacity="0.14"/>
    <rect x="1198" y="590" width="185" height="22" fill="#11100f" opacity="0.12"/>
    <rect x="1198" y="630" width="150" height="22" fill="#11100f" opacity="0.11"/>
    <path d="M1210 690c54-48 98-46 142-8" fill="none" stroke="#f42a2a" stroke-width="10" stroke-linecap="round"/>
  </g>

  <g transform="translate(1000 488) rotate(-18)">
    <circle cx="142" cy="142" r="104" fill="#dfe9e5" opacity="0.42" stroke="#11100f" stroke-width="20"/>
    <circle cx="142" cy="142" r="76" fill="none" stroke="#fffdfa" stroke-width="6" opacity="0.36"/>
    <rect x="224" y="218" width="270" height="38" rx="19" fill="#11100f"/>
  </g>

  <g stroke="#f42a2a" stroke-width="7" stroke-linecap="round" stroke-linejoin="round" fill="none" opacity="0.9">
    <path d="M1215 270l42 42 78-92"/>
    <path d="M1328 328l34 34 70-80"/>
  </g>
</svg>
